<svg width="27" height="23" viewBox="0 0 27 23" fill="none" xmlns="http://www.w3.org/2000/svg">
<path d="M23.4688 3.04688C20.75 0.75 16.5781 1.07812 14 3.75C11.375 1.07812 7.20312 0.75 4.48438 3.04688C0.96875 6 1.48438 10.8281 4.01562 13.4062L12.2188 21.7969C12.6875 22.2656 13.2969 22.5469 14 22.5469C14.6562 22.5469 15.2656 22.2656 15.7344 21.7969L23.9844 13.4062C26.4688 10.8281 26.9844 6 23.4688 3.04688ZM22.3438 11.8125L14.1406 20.2031C14.0469 20.2969 13.9531 20.2969 13.8125 20.2031L5.60938 11.8125C3.875 10.0781 3.54688 6.79688 5.9375 4.78125C7.76562 3.23438 10.5781 3.46875 12.3594 5.25L14 6.9375L15.6406 5.25C17.375 3.46875 20.1875 3.23438 22.0156 4.73438C24.4062 6.79688 24.0781 10.0781 22.3438 11.8125Z" fill="#212529"/>
</svg>
